<svg width="40" height="40" viewBox="0 0 40 40" fill="none" xmlns="http://www.w3.org/2000/svg">
  <path fill-rule="evenodd" clip-rule="evenodd" d="M20 35V35C11.715 35 5 28.285 5 20V20C5 11.715 11.715 5 20 5V5C28.285 5 35 11.715 35 20V20C35 28.285 28.285 35 20 35Z" stroke="#757575" stroke-linecap="round" stroke-linejoin="round"/>
  <path fill-rule="evenodd" clip-rule="evenodd" d="M20.5016 19.431V16.1077C20.5016 15.4958 20.0059 15 19.3939 15C18.7819 15 18.2861 15.4958 18.2861 16.1077V22.5L16.3016 21.4815C15.8501 21.2498 15.3004 21.336 14.9419 21.6945C14.4671 22.1692 14.4896 22.9455 14.9906 23.3925L18.6094 26.6198C18.8846 26.8643 19.2394 27 19.6076 27H23.0824C23.7851 27 24.3941 26.5118 24.5464 25.8255L25.3511 22.203C25.5859 21.1455 24.8786 20.109 23.8084 19.9433L20.5016 19.431Z" stroke="#757575" stroke-linecap="round" stroke-linejoin="round"/>
  <path d="M15.7144 15.75C15.7144 13.6793 17.3936 12 19.4644 12C21.5351 12 23.2144 13.6793 23.2144 15.75" stroke="#757575" stroke-linecap="round" stroke-linejoin="round"/>
</svg>
