<svg width="281" height="75" viewBox="0 0 281 75" fill="none" xmlns="http://www.w3.org/2000/svg">
<path d="M0 48.6136L43.0552 74.7175L87 48.6136L44.1227 21.3748L0 48.6136Z" fill="#8BD175"/>
<path d="M0 27.2388L43.0552 53.3426L87 27.2388L44.1227 0L0 27.2388Z" fill="#69AB95"/>
<mask id="mask0_169_12" style="mask-type:alpha" maskUnits="userSpaceOnUse" x="0" y="0" width="87" height="54">
<path d="M0 27.2388L43.0552 53.3426L87 27.2388L44.1227 0L0 27.2388Z" fill="#69AB95"/>
</mask>
<g mask="url(#mask0_169_12)">
<path d="M17 38.254L42.7429 54L70 37.746L43 22L17 38.254Z" fill="#469D6B"/>
</g>
<path d="M249.057 35.8027C249.057 27.3467 254.937 21.0187 262.833 21.0187C267.033 21.0187 270.561 22.8667 272.913 25.8907V21.8587H280.249V49.8587L272.913 49.9147V45.8267C270.561 48.8507 267.033 50.6987 262.777 50.6987C254.881 50.6987 249.057 44.3147 249.057 35.8027ZM256.225 35.8587C256.225 40.8987 259.473 44.4827 264.289 44.4827C269.049 44.4827 272.521 40.9547 272.521 35.8587C272.521 30.7067 269.049 27.1787 264.121 27.1787C259.249 27.2347 256.225 30.8187 256.225 35.8587Z" fill="#1B1B1B"/>
<path d="M210.185 43.3067H215.505C216.177 42.5227 216.625 41.2347 216.793 39.2187L218.473 21.8587H242.273V43.3067H248.153V57.6987H240.649V49.8587H217.577V57.6987H210.185V43.3067ZM223.345 43.6427H234.601V28.4107H225.249L224.185 39.4987C224.017 41.1227 223.737 42.4667 223.345 43.6427Z" fill="#1B1B1B"/>
<path d="M184.998 49.8587H177.27V21.8587H184.998V32.5547H199.334V21.8587H207.118V49.8587H199.334V38.6027H184.998V49.8587Z" fill="#1B1B1B"/>
<path d="M140.969 21.8587H148.641V41.6267L162.977 21.8587H171.657V49.8587H163.985V30.0907L149.649 49.8587H140.969V21.8587Z" fill="#1B1B1B"/>
<path d="M103 49.8587V43.4747H104.904C107.032 43.4747 108.04 42.2987 108.32 39.4427L110.056 21.8587H135.368V49.8587H127.584V28.4107H116.888L115.712 40.0587C114.984 47.2267 112.408 49.8587 106.136 49.8587H103Z" fill="#1B1B1B"/>
</svg>
