<svg width="178" height="37" viewBox="0 0 178 37" fill="none" xmlns="http://www.w3.org/2000/svg">
<path d="M146.057 14.8027C146.057 6.34674 151.937 0.0187378 159.833 0.0187378C164.033 0.0187378 167.561 1.86674 169.913 4.89074V0.85874H177.249V28.8587L169.913 28.9147V24.8267C167.561 27.8507 164.033 29.6987 159.777 29.6987C151.881 29.6987 146.057 23.3147 146.057 14.8027ZM153.225 14.8587C153.225 19.8987 156.473 23.4827 161.289 23.4827C166.049 23.4827 169.521 19.9547 169.521 14.8587C169.521 9.70674 166.049 6.17874 161.121 6.17874C156.249 6.23474 153.225 9.81874 153.225 14.8587Z" fill="white"/>
<path d="M107.185 22.3068H112.505C113.177 21.5228 113.625 20.2348 113.793 18.2188L115.473 0.858765H139.273V22.3068H145.153V36.6988H137.649V28.8588H114.577V36.6988H107.185V22.3068ZM120.345 22.6428H131.601V7.41076H122.249L121.185 18.4988C121.017 20.1228 120.737 21.4668 120.345 22.6428Z" fill="white"/>
<path d="M81.9985 28.8588H74.2704V0.858765H81.9985V11.5548H96.3344V0.858765H104.118V28.8588H96.3344V17.6028H81.9985V28.8588Z" fill="white"/>
<path d="M37.9689 0.858765H45.6409V20.6268L59.9769 0.858765H68.6569V28.8588H60.9849V9.09076L46.6489 28.8588H37.9689V0.858765Z" fill="white"/>
<path d="M0 28.8588V22.4748H1.904C4.032 22.4748 5.04 21.2988 5.32 18.4428L7.056 0.858765H32.368V28.8588H24.584V7.41076H13.888L12.712 19.0588C11.984 26.2268 9.408 28.8588 3.136 28.8588H0Z" fill="white"/>
</svg>
